<svg xmlns="http://www.w3.org/2000/svg" width="440" height="254" class="vega" viewBox="0 0 440 254"><style>@media (prefers-color-scheme: dark) { .vega { filter: invert(1) hue-rotate(180deg); } }</style><g fill="none" stroke-miterlimit="10" aria-roledescription="group mark container" class="mark-group role-frame root"><path d="M38 22h400v200H38Z" aria-hidden="true" class="background"></path><g aria-label="X-axis titled 'Query' for a discrete scale with 22 values: q1, q2, q3, q4, q5, ending with q22" aria-roledescription="axis" class="mark-group role-axis" pointer-events="none"><path d="M38.5 222.5" aria-hidden="true" class="background"></path><g stroke="#888" class="mark-rule role-axis-tick"><path d="M50.5 222.5v5M68.5 222.5v5M86.5 222.5v5M104.5 222.5v5M121.5 222.5v5M139.5 222.5v5M157.5 222.5v5M175.5 222.5v5M193.5 222.5v5M211.5 222.5v5M229.5 222.5v5M246.5 222.5v5M264.5 222.5v5M282.5 222.5v5M300.5 222.5v5M318.5 222.5v5M336.5 222.5v5M354.5 222.5v5M371.5 222.5v5M389.5 222.5v5M407.5 222.5v5M425.5 222.5v5"></path></g><g fill="#000" class="mark-text role-axis-label" font-family="sans-serif" font-size="10" text-anchor="middle"><text transform="translate(50.5 237.5)">q1</text><text transform="translate(68.357 237.5)">q2</text><text transform="translate(86.214 237.5)">q3</text><text transform="translate(104.071 237.5)">q4</text><text transform="translate(121.929 237.5)">q5</text><text transform="translate(139.786 237.5)">q6</text><text transform="translate(157.643 237.5)">q7</text><text transform="translate(175.5 237.5)">q8</text><text transform="translate(193.357 237.5)">q9</text><text transform="translate(211.214 237.5)">q10</text><text transform="translate(229.071 237.5)">q11</text><text transform="translate(246.929 237.5)">q12</text><text transform="translate(264.786 237.5)">q13</text><text transform="translate(282.643 237.5)">q14</text><text transform="translate(300.5 237.5)">q15</text><text transform="translate(318.357 237.5)">q16</text><text transform="translate(336.214 237.5)">q17</text><text transform="translate(354.071 237.5)">q18</text><text transform="translate(371.929 237.5)">q19</text><text transform="translate(389.786 237.5)">q20</text><text transform="translate(407.643 237.5)">q21</text><text transform="translate(425.5 237.5)">q22</text></g><path stroke="#888" d="M38.5 222.5h400" class="mark-rule role-axis-domain"></path><text fill="#000" class="mark-text role-axis-title" font-family="sans-serif" font-size="11" font-weight="bold" text-anchor="middle" transform="translate(238.5 252.5)">Query</text></g><g aria-label="Y-axis titled 'Query Time (s)' for a linear scale with values from 0 to 45" aria-roledescription="axis" class="mark-group role-axis" pointer-events="none"><path d="M38.5 22.5" aria-hidden="true" class="background"></path><g stroke="#888" class="mark-rule role-axis-tick"><path d="M38.5 222.5h-5M38.5 200.5h-5M38.5 178.5h-5M38.5 155.5h-5M38.5 133.5h-5M38.5 111.5h-5M38.5 89.5h-5M38.5 66.5h-5M38.5 44.5h-5M38.5 22.5h-5"></path></g><g fill="#000" class="mark-text role-axis-label" font-family="sans-serif" font-size="10" text-anchor="end"><text transform="translate(31.5 225.5)">0</text><text transform="translate(31.5 203.278)">5</text><text transform="translate(31.5 181.056)">10</text><text transform="translate(31.5 158.833)">15</text><text transform="translate(31.5 136.611)">20</text><text transform="translate(31.5 114.389)">25</text><text transform="translate(31.5 92.167)">30</text><text transform="translate(31.5 69.944)">35</text><text transform="translate(31.5 47.722)">40</text><text transform="translate(31.5 25.5)">45</text></g><path stroke="#888" d="M38.5 222.5v-200" class="mark-rule role-axis-domain"></path><text fill="#000" class="mark-text role-axis-title" font-family="sans-serif" font-size="11" font-weight="bold" text-anchor="middle" transform="rotate(-90 66 56.5)">Query Time (s)</text></g><g fill="#e25a1c" aria-roledescription="rect mark container" class="mark-rect role-mark"><path d="M45.143 43.366H50.5V222h-5.357ZM63 175.927h5.357V222H63ZM80.857 155.574h5.357V222h-5.357ZM98.714 165.776h5.357V222h-5.357ZM116.571 96.77h5.358V222h-5.358ZM134.429 214.075h5.357V222h-5.357ZM152.286 163.1h5.357V222h-5.357ZM170.143 122.862h5.357V222h-5.357ZM188 28.67h5.357V222H188ZM205.857 169.279h5.357V222h-5.357ZM223.714 183.611h5.357V222h-5.357ZM241.571 188.388h5.358V222h-5.358ZM259.429 158.145h5.357V222h-5.357ZM277.286 206.795h5.357V222h-5.357ZM295.143 178.211h5.357V222h-5.357ZM313 196.206h5.357V222H313ZM330.857 35.381h5.357V222h-5.357ZM348.714 38.742h5.357V222h-5.357ZM366.571 204.23h5.358V222h-5.358ZM384.429 191.756h5.357V222h-5.357ZM402.286 56.496h5.357V222h-5.357ZM420.143 189.023h5.357V222h-5.357Z"></path></g><g fill="#3762e0" aria-roledescription="rect mark container" class="mark-rect role-mark"><path d="M50.5 197.316h5.357V222H50.5ZM68.357 209.925h5.357V222h-5.357ZM86.214 208.343h5.357V222h-5.357ZM104.071 215.089h5.358V222h-5.358ZM121.929 201.314h5.357V222h-5.357ZM139.786 216.489h5.357V222h-5.357ZM157.643 185.633H163V222h-5.357ZM175.5 201.63h5.357V222H175.5ZM193.357 186.094h5.357V222h-5.357ZM211.214 202.517h5.357V222h-5.357ZM229.071 215.216h5.358V222h-5.358ZM246.929 214.669h5.357V222h-5.357ZM264.786 204.67h5.357V222h-5.357ZM282.643 214.85H288V222h-5.357ZM300.5 209.164h5.357V222H300.5ZM318.357 217.22h5.357V222h-5.357ZM336.214 168.624h5.357V222h-5.357ZM354.071 158.25h5.358V222h-5.358ZM371.929 209.59h5.357V222h-5.357ZM389.786 202.136h5.357V222h-5.357ZM407.643 170.566H413V222h-5.357ZM425.5 218.01h5.357V222H425.5Z"></path></g><path stroke="#888" d="M38.5 22.5h400v200h-400Z" aria-roledescription="rect mark container" class="mark-rect role-mark"></path><g aria-label="Symbol legend for fill color with 2 values: Spark, Sail" aria-roledescription="legend" class="mark-group role-legend"><path stroke="#ccc" d="M376.5 26.5h54a2 2 0 0 1 2 2v22a2 2 0 0 1-2 2h-54a2 2 0 0 1-2-2v-22a2 2 0 0 1 2-2Z" aria-hidden="true" class="background" pointer-events="none"></path><g class="mark-group role-legend-entry"><path d="M376 28" aria-hidden="true" class="background" pointer-events="none"></path><g aria-roledescription="group mark container" class="mark-group role-scope" pointer-events="none"><path d="M376 28h54v10h-54Z" aria-hidden="true" class="background"></path><path fill="#e25a1c" d="M378.261 30.261h5.477v5.477h-5.477Z" class="mark-symbol role-legend-symbol"></path><text fill="#000" class="mark-text role-legend-label" font-family="sans-serif" font-size="10" transform="translate(390 36)">Spark</text><path d="M376 40h54v10h-54Z" aria-hidden="true" class="background"></path><path fill="#3762e0" d="M378.261 42.261h5.477v5.477h-5.477Z" class="mark-symbol role-legend-symbol"></path><text fill="#000" class="mark-text role-legend-label" font-family="sans-serif" font-size="10" transform="translate(390 48)">Sail</text></g></g></g><g class="mark-group role-title"><path d="M238 0" aria-hidden="true" class="background" pointer-events="none"></path><text fill="#000" aria-label="Title text 'Query Time Comparison'" aria-roledescription="title" class="mark-text role-title-text" font-family="sans-serif" font-size="13" font-weight="bold" pointer-events="none" text-anchor="middle" transform="translate(238 10)">Query Time Comparison</text></g></g></svg>
